<svg width="45" height="45" viewBox="0 0 45 45" fill="none" xmlns="http://www.w3.org/2000/svg">
<path fill-rule="evenodd" clip-rule="evenodd" d="M23.0348 7.63266H11.5025V11.0664C11.5025 11.376 11.2517 11.6272 10.9418 11.6272H7.5083V34.6813C7.5083 34.9131 7.69739 35.1017 7.92867 35.1017H28.2809C28.5127 35.1017 28.7013 34.9126 28.7013 34.6813V30.454L28.0612 31.0941L22.7905 32.5064L23.0655 31.4811H11.8328C11.5232 31.4811 11.2721 31.2302 11.2721 30.9204C11.2721 30.6107 11.523 30.3596 11.8328 30.3596H23.3657L24.0557 27.7844L11.8324 27.7846C11.5228 27.7846 11.2717 27.5338 11.2717 27.2239C11.2717 26.9143 11.5226 26.6631 11.8324 26.6631H24.3759C24.4894 26.6631 24.5948 26.6968 24.683 26.7546L28.7008 22.7367V20.8995H28.2348C27.3333 20.8995 26.557 20.2552 26.3891 19.3715L26.2763 18.7791C25.8514 18.4341 25.5792 17.9079 25.5792 17.3196L25.5787 17.0702C25.2563 16.8377 25.0428 16.5723 24.9213 16.2639C24.8625 16.5108 24.6408 16.6943 24.3756 16.6943H11.8321C11.5225 16.6943 11.2714 16.4435 11.2714 16.1336C11.2714 15.824 11.5223 15.5728 11.8321 15.5728H24.3756C24.5488 15.5728 24.7033 15.6512 24.8065 15.7745C24.7844 15.551 24.7957 15.3056 24.7957 15.0804C24.7465 14.276 24.6408 13.6407 24.3957 12.9974C24.3894 12.9977 24.3826 12.9977 24.3761 12.9977L15.3716 12.9979C15.0619 12.9979 14.8108 12.747 14.8108 12.4372C14.8108 12.1275 15.0617 11.8764 15.3716 11.8764H23.8386C23.2372 10.8273 22.9168 10.1174 22.9168 8.79546C22.917 8.39719 22.9575 8.00873 23.0338 7.63279L23.0348 7.63266ZM28.9455 10.4738V14.5647H28.4568L28.4571 10.4738H28.9455ZM30.0672 8.82946V9.35229H30.5901C30.8761 9.35229 31.1129 9.11598 31.1129 8.82946C31.1129 8.54294 30.8766 8.30664 30.5901 8.30664C30.3035 8.30689 30.0672 8.54319 30.0672 8.82946ZM26.813 8.30689C27.0995 8.30689 27.3358 8.54319 27.3358 8.82971V9.35254H26.813C26.5265 9.35254 26.2902 9.11624 26.2902 8.82971C26.2902 8.54319 26.5265 8.30689 26.813 8.30689ZM26.813 7.18543C25.9078 7.18543 25.169 7.9242 25.169 8.82947C25.169 9.73474 25.9078 10.4735 26.813 10.4735H27.3358V14.5645H25.8801C25.5509 11.2379 24.0397 11.2706 24.0397 8.79508C24.0397 6.22037 26.127 4.13308 28.7017 4.13308C31.2764 4.13308 33.3637 6.22037 33.3637 8.79508C33.3637 11.2703 31.8519 11.2379 31.5232 14.5645H30.0675L30.0672 10.4738H30.59C31.4953 10.4738 32.2341 9.735 32.2341 8.82973C32.2341 7.92446 31.4953 7.18568 30.59 7.18568C29.6848 7.18568 28.946 7.92446 28.946 8.82973V9.35255H28.4573V8.82973C28.4571 7.9242 27.7183 7.18543 26.813 7.18543ZM29.9625 19.1619C29.8957 19.5117 29.5868 19.7783 29.2182 19.7783H28.2348C27.8662 19.7783 27.5573 19.5117 27.4905 19.1619H29.9625ZM30.7397 17.4239C30.6729 17.7737 30.3641 18.0404 29.9954 18.0404H27.4586C27.09 18.0404 26.7811 17.7737 26.7143 17.4239H30.7397ZM31.472 15.6862C31.4052 16.036 31.0963 16.3027 30.7277 16.3027H26.6755C26.3068 16.3027 25.9979 16.036 25.9312 15.6862H31.472ZM25.6046 27.4196L33.4803 19.544L35.7529 21.8166L27.8773 29.6916L25.6046 27.4196ZM26.8555 30.256L24.3765 30.9202L25.0407 28.4412L26.8555 30.256ZM34.2727 18.7514L36.5454 21.024L37.1011 20.4683C37.6227 19.9467 37.6227 19.0962 37.1011 18.5746L36.7224 18.196C36.2008 17.6744 35.3503 17.6744 34.8287 18.196L34.2727 18.7514ZM29.262 2.55718C29.262 2.8668 29.0111 3.11792 28.7012 3.11792C28.3916 3.11792 28.1405 2.86706 28.1405 2.55718L28.1408 1.4593C28.1408 1.14968 28.3916 0.89856 28.7015 0.89856C29.0111 0.89856 29.2622 1.14942 29.2622 1.4593L29.262 2.55718ZM35.0696 6.55768C34.8021 6.71136 34.4609 6.6192 34.3072 6.35176C34.1535 6.08432 34.2457 5.74305 34.5131 5.5894L35.4641 5.04046C35.7315 4.88677 36.0728 4.97893 36.2265 5.24637C36.3801 5.51381 36.288 5.85508 36.0205 6.00873L35.0696 6.55768ZM32.7015 3.77957L33.2505 2.82859C33.4054 2.56115 33.3143 2.21888 33.0468 2.06443C32.7794 1.90948 32.4371 2.00064 32.2827 2.26808L31.7337 3.21906C31.5788 3.4865 31.6699 3.82877 31.9374 3.98323C32.2046 4.13817 32.5466 4.04701 32.7015 3.77957ZM22.889 5.58934C23.1564 5.74302 23.2486 6.08429 23.0949 6.3517C22.9412 6.61915 22.5999 6.71131 22.3325 6.55762L21.3815 6.00868C21.1141 5.85499 21.0219 5.51373 21.1756 5.24631C21.3293 4.9789 21.6706 4.88671 21.938 5.0404L22.889 5.58934ZM25.6688 3.22131L25.1199 2.27033C24.9662 2.00289 24.6249 1.91073 24.3575 2.06442C24.0901 2.2181 23.9979 2.55937 24.1516 2.82678L24.7005 3.77776C24.8542 4.0452 25.1955 4.13736 25.4629 3.98368C25.7303 3.82974 25.8225 3.48848 25.6688 3.22131ZM10.3804 8.19343V10.5057H8.06834L10.3804 8.19343ZM24.376 22.9663C24.6856 22.9663 24.9368 23.2171 24.9368 23.527C24.9368 23.8367 24.6859 24.0878 24.376 24.0878H11.8326C11.523 24.0878 11.2718 23.8369 11.2718 23.527C11.2718 23.2174 11.5227 22.9663 11.8326 22.9663H24.376ZM24.376 19.2696C24.6856 19.2696 24.9368 19.5205 24.9368 19.8303C24.9368 20.14 24.6859 20.3911 24.376 20.3911H11.8326C11.523 20.3911 11.2718 20.1402 11.2718 19.8303C11.2718 19.5207 11.5227 19.2696 11.8326 19.2696H24.376Z" fill="white"/>
</svg>
