<svg width="41" height="41" viewBox="0 0 41 41" fill="none" xmlns="http://www.w3.org/2000/svg">
<path d="M35.8751 2.18061C35.8079 2.17992 35.7408 2.18678 35.6752 2.2012L34.458 2.44212L34.6989 1.22495C34.7566 0.935521 34.6866 0.635366 34.507 0.40108C34.3274 0.167023 34.0556 0.0217367 33.7611 0.00229098C33.4667 -0.0171547 33.1781 0.0912903 32.9692 0.299723L29.6995 3.56965C29.5559 3.71264 29.4586 3.89568 29.4202 4.09496L29.0589 5.91162C28.9916 6.24703 29.0976 6.59386 29.3408 6.83412L19.8803 16.2952C19.439 16.0838 18.9235 16.0945 18.4913 16.3238C18.0591 16.553 17.7614 16.9738 17.6889 17.4576C17.6164 17.9415 17.7777 18.4309 18.1236 18.7768C18.4696 19.1228 18.959 19.2841 19.4429 19.2116C19.9268 19.139 20.3475 18.8414 20.5767 18.4092C20.806 17.977 20.8167 17.4615 20.6053 17.0202L29.5691 8.05405L30.0638 7.5594H30.0635C30.2555 7.7525 30.5165 7.8614 30.7888 7.86187C30.8561 7.86255 30.9231 7.85569 30.9888 7.84128L32.8057 7.48001H32.8055C33.0047 7.44157 33.1878 7.34433 33.3308 7.20065L36.6005 3.93096H36.6007C36.7931 3.73877 36.9015 3.47794 36.9015 3.20567C36.9015 2.93363 36.7936 2.6728 36.6009 2.48038C36.4085 2.28819 36.1474 2.18043 35.8754 2.18066L35.8751 2.18061ZM19.2186 18.1934C19.0113 18.1934 18.8244 18.0685 18.7452 17.877C18.6658 17.6855 18.7095 17.4652 18.8562 17.3185C19.0028 17.1719 19.2232 17.1282 19.4147 17.2076C19.6062 17.2867 19.7311 17.4737 19.7311 17.6809C19.7302 17.9637 19.5014 18.1925 19.2186 18.1934ZM33.3331 2.84129L30.0632 6.11098L30.4245 4.2941L33.6944 1.02441L33.3331 2.84129Z" fill="white"/>
<path d="M19.2185 32.8C22.9552 32.8025 26.5605 31.4203 29.3373 28.9203C32.1144 26.42 33.8665 22.9794 34.2553 19.2631C34.644 15.5468 33.6416 11.818 31.442 8.79751L31.2748 8.83091L31.1904 8.8483C31.1707 8.85219 31.1506 8.85357 31.1309 8.85677C31.0179 8.87667 30.9032 8.88697 30.7886 8.88766C30.7598 8.88766 30.7319 8.88308 30.7033 8.88194C30.6618 8.87988 30.6202 8.87827 30.579 8.87347H30.5788C30.4703 8.86295 30.3628 8.84396 30.2571 8.81673L28.2 10.8752C29.9283 13.1549 30.7271 16.0057 30.4342 18.8515C30.1414 21.6975 28.7794 24.3259 26.623 26.2063C24.4666 28.0863 21.6769 29.0776 18.8178 28.9799C15.9588 28.882 13.2432 27.7026 11.2205 25.6796C9.19746 23.6568 8.018 20.9412 7.92007 18.0823C7.82238 15.223 8.81376 12.4333 10.6937 10.277C12.574 8.12067 15.2024 6.75865 18.0485 6.46579C20.8943 6.17293 23.7451 6.97165 26.0248 8.7L28.0831 6.64291L28.0826 6.64222C28.0005 6.33793 27.9899 6.01873 28.0517 5.70965L28.078 5.58107L28.1025 5.4582H28.1027C25.5203 3.58116 22.4099 2.56993 19.2174 2.56946C16.0251 2.569 12.9146 3.57935 10.3316 5.45568C7.74892 7.33202 5.82637 9.97804 4.8398 13.0143C3.85345 16.0504 3.85345 19.3213 4.84026 22.3571C5.82707 25.3932 7.74985 28.039 10.3327 29.9151C12.9158 31.791 16.0265 32.8011 19.2185 32.8005L19.2185 32.8Z" fill="white"/>
<path d="M25.2965 9.42939C23.2142 7.89553 20.6295 7.20503 18.06 7.4963C15.4902 7.78779 13.1256 9.03931 11.4396 11.0003C9.75367 12.9611 8.87076 15.4867 8.96823 18.071C9.06547 20.6555 10.1356 23.1075 11.9643 24.9362C13.793 26.7647 16.245 27.8348 18.8294 27.9322C21.4137 28.0295 23.9393 27.1465 25.9002 25.4606C27.8611 23.7746 29.1127 21.4098 29.4039 18.8402C29.6952 16.2707 29.0047 13.6857 27.4708 11.6037L27.4537 11.6209L25.4435 13.6325C26.7918 15.7058 27.0211 18.3139 26.0553 20.5908C25.0893 22.8677 23.0548 24.5153 20.6269 24.9868C18.1991 25.4584 15.6957 24.6922 13.948 22.9426C12.2 21.1928 11.4363 18.6886 11.9106 16.2613C12.3846 13.8338 14.0345 11.8012 16.3121 10.8377C18.59 9.8743 21.1978 10.1063 23.2698 11.4566L25.2965 9.42939Z" fill="white"/>
<path d="M19.2184 13.5815C19.768 13.5809 20.3118 13.6914 20.8175 13.9069L22.0143 12.7112L22.5266 12.1978C20.7232 11.1092 18.5001 10.9758 16.5793 11.8413C14.6588 12.7066 13.2858 14.4601 12.9067 16.5323C12.5273 18.6045 13.1901 20.7305 14.6796 22.2201C16.1693 23.7096 18.2952 24.3724 20.3674 23.9931C22.4396 23.614 24.1931 22.241 25.0584 20.3205C25.9239 18.4 25.7906 16.1768 24.702 14.3731L22.9928 16.0823C23.2084 16.5879 23.3191 17.1317 23.3182 17.6813C23.3182 18.7688 22.8862 19.8116 22.1172 20.5804C21.3485 21.3494 20.3056 21.7813 19.2182 21.7813C18.1307 21.7813 17.0879 21.3494 16.3191 20.5804C15.5501 19.8116 15.1182 18.7688 15.1182 17.6813C15.1182 16.5939 15.5501 15.551 16.3191 14.7823C17.0879 14.0133 18.1307 13.5813 19.2182 13.5813L19.2184 13.5815Z" fill="white"/>
</svg>
