<svg width="36" height="35" viewBox="0 0 36 35" fill="none" xmlns="http://www.w3.org/2000/svg">
<path d="M33.3699 27.7938V26.8176C33.3688 25.9502 33.0306 25.1186 32.4294 24.5053C31.8281 23.892 31.0128 23.5471 30.1624 23.5459H28.4933V18.3253C29.2815 18.1445 29.9796 17.6812 30.4606 17.0192C30.9417 16.3575 31.1738 15.5413 31.1141 14.7197C31.0547 13.8981 30.7078 13.1254 30.1367 12.5428C29.5655 11.9602 28.808 11.6065 28.0025 11.5455C27.197 11.4849 26.3967 11.7214 25.748 12.2121C25.099 12.7027 24.6445 13.4151 24.4673 14.2188H18.7399V7.00563C19.8283 6.75575 20.7248 5.9728 21.1344 4.91441C21.5443 3.85601 21.4137 2.65926 20.7862 1.71867C20.1587 0.777798 19.1154 0.214539 17.9999 0.214539C16.8844 0.214539 15.8411 0.777761 15.2136 1.71867C14.5861 2.65926 14.4555 3.85601 14.8654 4.91441C15.275 5.9728 16.1715 6.75573 17.2599 7.00563V14.2188H11.5325C11.3553 13.4151 10.9008 12.7027 10.2517 12.2121C9.60302 11.7214 8.80281 11.4849 7.99731 11.5455C7.19181 11.6065 6.43424 11.9602 5.86309 12.5428C5.29194 13.1254 4.9451 13.8981 4.88567 14.7197C4.82624 15.5413 5.0581 16.3575 5.53912 17.0192C6.02015 17.6812 6.71827 18.1445 7.50648 18.3253V23.5459H5.83741C4.98698 23.5471 4.17169 23.892 3.57041 24.5053C2.96912 25.1186 2.63098 25.9502 2.62984 26.8176V27.7938C1.54169 28.0437 0.644909 28.8266 0.235337 29.885C-0.174541 30.9434 -0.0439625 32.1399 0.583273 33.0807C1.21079 34.0216 2.25406 34.5849 3.36984 34.5849C4.48534 34.5849 5.52863 34.0219 6.15613 33.081C6.78363 32.1401 6.9142 30.9437 6.50462 29.8853C6.09504 28.8269 5.19827 28.0437 4.11012 27.7938V26.8176C4.11068 26.3503 4.2926 25.9026 4.61654 25.5722C4.94048 25.2421 5.37939 25.0562 5.83754 25.0557H10.6559C11.1138 25.0562 11.553 25.2418 11.8766 25.5722C12.2006 25.9026 12.3827 26.3503 12.3833 26.8176V27.7938C11.2949 28.0437 10.3984 28.8266 9.98881 29.885C9.57893 30.9434 9.70951 32.1399 10.3367 33.0807C10.9643 34.0216 12.0075 34.5849 13.1233 34.5849C14.2388 34.5849 15.2821 34.0219 15.9096 33.081C16.5371 32.1401 16.6677 30.9437 16.2581 29.8853C15.8485 28.8269 14.9517 28.0437 13.8636 27.7938V26.8176C13.8625 25.9502 13.5243 25.1186 12.923 24.5053C12.3215 23.892 11.5062 23.5471 10.656 23.5459H8.98667V18.3253C9.60832 18.1821 10.1775 17.8622 10.6281 17.4026C11.0787 16.943 11.3923 16.3627 11.5327 15.7286H24.4677C24.608 16.3626 24.9216 16.943 25.3722 17.4026C25.8229 17.8622 26.392 18.1821 27.0137 18.3253V23.5459H25.3443C24.4942 23.5471 23.6789 23.892 23.0773 24.5053C22.476 25.1186 22.1379 25.9502 22.1367 26.8176V27.7938C21.0486 28.0437 20.1518 28.8269 19.7422 29.8853C19.3327 30.9437 19.4632 32.1402 20.0907 33.081C20.7182 34.0216 21.7615 34.5849 22.877 34.5849C23.9928 34.5849 25.0361 34.0217 25.6636 33.0807C26.2908 32.1399 26.4214 30.9434 26.0115 29.885C25.6019 28.8266 24.7055 28.0437 23.617 27.7938V26.8176C23.6176 26.3503 23.7998 25.9026 24.1237 25.5722C24.4474 25.2418 24.8866 25.0562 25.3444 25.0557H30.1628C30.6209 25.0562 31.0599 25.2421 31.3838 25.5722C31.7077 25.9026 31.8897 26.3503 31.8902 26.8176V27.7938C30.8021 28.0437 29.9053 28.8269 29.4957 29.8853C29.0861 30.9434 29.2167 32.1402 29.8442 33.0807C30.4717 34.0216 31.515 34.5849 32.6305 34.5846C33.746 34.5846 34.7893 34.0216 35.4168 33.0807C36.0443 32.1399 36.1746 30.9434 35.765 29.885C35.3554 28.8266 34.4586 28.0437 33.3705 27.7938H33.3699Z" fill="white"/>
</svg>
