<svg width="46" height="46" viewBox="0 0 46 46" fill="none" xmlns="http://www.w3.org/2000/svg">
<path d="M23.736 6.18225C23.5245 5.98382 23.1947 5.98562 22.9854 6.18687C22.7765 6.38812 22.7619 6.71797 22.9523 6.93667L24.0564 8.09593H19.011V5.58624L12.7993 1.99811L6.58724 5.58624V12.755L12.799 16.3431L19.0108 12.755L19.011 9.2H24.0782L22.9741 10.3557H22.9744C22.825 10.5769 22.8584 10.8742 23.0532 11.057C23.2478 11.2397 23.5466 11.2544 23.7581 11.0916L26.1169 8.63705L23.736 6.18225ZM12.696 14.0174C12.3829 14.0174 12.0823 13.8929 11.8607 13.6713C11.6392 13.4498 11.5147 13.1492 11.5147 12.836C11.5147 12.5226 11.6392 12.2223 11.8607 12.0007C12.0823 11.7792 12.3829 11.6547 12.696 11.6547C13.0095 11.6547 13.3098 11.7792 13.5313 12.0007C13.7529 12.2223 13.8774 12.5226 13.8774 12.836C13.8774 13.1492 13.7529 13.4498 13.5313 13.6713C13.3098 13.8929 13.0095 14.0174 12.696 14.0174ZM14.4477 9.32162C13.7816 9.75595 13.594 9.97671 13.5683 10.6942H11.7283V10.1497C11.7283 9.17815 12.2802 8.77716 12.718 8.45325L12.8651 8.35751C13.3326 8.041 13.7777 7.74657 13.7777 7.12103H13.778C13.7805 6.88179 13.683 6.6523 13.5092 6.48802C13.3352 6.32399 13.1003 6.23979 12.8616 6.25622C12.1256 6.25622 11.7208 6.67566 11.6767 7.44112V7.59206H9.6344C9.69703 5.75206 10.9297 4.60383 12.8765 4.60383C14.3483 4.60383 15.9676 5.3878 15.9676 7.10998C15.9676 8.29875 15.3862 8.72563 14.4441 9.32166L14.4477 9.32162ZM23.4788 25.856C23.3895 25.7235 23.2465 25.637 23.0879 25.6191C22.9292 25.6013 22.7706 25.654 22.6543 25.7633C22.5378 25.8727 22.4754 26.0275 22.4831 26.1869C22.4911 26.3465 22.5683 26.4944 22.6949 26.5919L23.7989 27.7512H19.1732V25.1753C19.1702 24.2304 18.7936 23.325 18.1254 22.6568C17.4575 21.9889 16.5522 21.6121 15.6073 21.6093H10.0064C9.05765 21.6121 8.14895 21.9918 7.48031 22.6648C6.8116 23.3376 6.43762 24.2486 6.44045 25.1973V30.7946C6.44301 32.027 7.08167 33.1709 8.1295 33.8195L8.68139 28.9988H8.68165C8.68576 28.9451 8.69962 28.8928 8.72195 28.8443C8.80897 28.4158 9.04565 28.0326 9.38961 27.7628C9.73358 27.4933 10.1623 27.3546 10.5989 27.3721H15.0333C15.493 27.3546 15.9425 27.5102 16.2934 27.808C16.6441 28.1055 16.8707 28.5239 16.9285 28.9803L17.3407 32.7119H17.3405C17.3423 32.7301 17.3423 32.7486 17.3405 32.7671L17.4804 33.827C18.5344 33.1791 19.1777 32.0317 19.1805 30.7946V28.8553H23.8064L22.7024 30.0145V30.0143C22.5997 30.1159 22.5419 30.2545 22.5419 30.3991C22.5419 30.5433 22.5997 30.6819 22.7024 30.7836C22.8022 30.8775 22.9331 30.9312 23.0702 30.9343C23.2173 30.934 23.358 30.8745 23.4604 30.7687L25.8192 28.3141L23.4788 25.856ZM12.8068 26.912H12.8066C12.2834 26.912 11.7818 26.7043 11.4119 26.3344C11.042 25.9646 10.8341 25.4627 10.8341 24.9395C10.8341 24.4164 11.042 23.9148 11.4119 23.5449C11.7818 23.175 12.2834 22.9671 12.8066 22.9671C13.3297 22.9671 13.8316 23.175 14.2015 23.5449C14.5714 23.9148 14.7791 24.4164 14.7791 24.9395C14.7791 25.4614 14.5724 25.962 14.2041 26.3316C13.8357 26.7015 13.3359 26.9102 12.8141 26.912L12.8068 26.912ZM10.2309 30.7907H10.2306C10.2915 30.802 10.3528 30.8094 10.4147 30.8127V34.3639L10.0063 34.3641H9.82608L10.2309 30.7907ZM15.3828 30.7907L15.795 34.3528H15.6148L15.1877 34.3531V30.8091L15.3828 30.7907ZM39.2252 15.6435V2.7011H26.2828V14.878L19.8389 21.3218L19.8058 19.7175V19.7172C19.805 19.5722 19.7455 19.4336 19.6407 19.3332C19.536 19.2326 19.3953 19.1787 19.2503 19.1838C18.9502 19.1918 18.7125 19.4395 18.7166 19.7393L18.7865 23.1434L22.1905 23.2132C22.4862 23.2114 22.7273 22.9752 22.7352 22.6798C22.7391 22.535 22.6849 22.3946 22.5846 22.2904C22.4844 22.1859 22.3463 22.1258 22.2016 22.124L20.6083 22.0799L27.0483 15.6435L39.2252 15.6435ZM28.4652 9.56805L29.4881 9.0603V9.06004C29.4929 8.87188 29.5166 8.6845 29.5581 8.5007L28.6933 7.76477C28.6384 7.73448 28.5981 7.68365 28.5817 7.62333C28.565 7.563 28.5735 7.49858 28.605 7.44467L29.1128 6.55036C29.1446 6.49645 29.196 6.45692 29.2563 6.43998C29.3171 6.42509 29.3813 6.43305 29.4367 6.46206L30.5408 6.83016H30.5406C30.6805 6.70233 30.8306 6.58681 30.9895 6.48414L30.9048 5.35799H30.9051C30.8871 5.29792 30.8948 5.23324 30.9261 5.17881C30.9574 5.12465 31.0095 5.08563 31.0706 5.071L32.0569 4.78401C32.1837 4.75064 32.3138 4.82406 32.3513 4.94958L32.8629 5.9579H32.8626C33.0534 5.96458 33.2431 5.98793 33.4294 6.02772L34.1654 5.17751V5.17777C34.2311 5.06482 34.3753 5.02555 34.4893 5.08946L35.4019 5.59362C35.5084 5.64906 35.5562 5.77612 35.5123 5.88805L35.1444 6.99185C35.2805 7.12867 35.4037 7.27781 35.5123 7.43722L36.6163 7.35995C36.7413 7.32453 36.8715 7.39691 36.9072 7.52192L37.1942 8.51171C37.227 8.63672 37.1531 8.76482 37.0286 8.7987L36.0092 9.30645V9.3067C36.0026 9.49486 35.9789 9.68199 35.9391 9.86604L36.8003 10.602C36.855 10.6323 36.8953 10.6828 36.9128 10.7429C36.93 10.803 36.9225 10.8674 36.8922 10.9221L36.3955 11.8018C36.3301 11.9124 36.1884 11.9514 36.0754 11.8901L34.9714 11.522C34.8325 11.6509 34.6823 11.7666 34.5224 11.868L34.6071 12.9942V12.9939C34.64 13.1189 34.566 13.247 34.4415 13.2812L33.4332 13.5571C33.3085 13.5905 33.1796 13.5186 33.1424 13.3951L32.6308 12.3833C32.439 12.3763 32.2483 12.353 32.0604 12.3132L31.3245 13.1634C31.2944 13.2181 31.2434 13.2584 31.183 13.2751C31.1227 13.2917 31.0583 13.2833 31.0044 13.2517L30.088 12.7475C30.0333 12.7173 29.993 12.6664 29.9763 12.6061C29.9596 12.5458 29.9681 12.4814 29.9997 12.4274L30.3678 11.3565C30.2338 11.2176 30.1108 11.0687 29.9997 10.9111L28.8885 10.9994C28.7624 11.0351 28.6312 10.963 28.594 10.8377L28.3106 9.84793V9.84768C28.2773 9.72806 28.3461 9.60356 28.4652 9.56814L28.4652 9.56805ZM30.9564 9.68587V9.68561C30.8219 9.19533 30.8868 8.67164 31.1371 8.22886C31.3874 7.78631 31.8027 7.46059 32.2922 7.32325C32.7792 7.1831 33.3021 7.24547 33.7423 7.49601C34.3142 7.8464 34.6623 8.46937 34.6602 9.14018C34.6582 9.81066 34.3068 10.4319 33.7328 10.7787C33.1586 11.1255 32.4452 11.1478 31.8507 10.8377C31.4079 10.5882 31.0853 10.1698 30.9564 9.67847V9.68587ZM32.7558 21.197L32.7561 21.1968C30.9497 21.196 29.2173 21.9127 27.9397 23.1895C26.6622 24.4663 25.9444 26.1988 25.9444 28.0049C25.9444 29.8109 26.6622 31.5432 27.9397 32.8202C29.2173 34.097 30.9497 34.8137 32.7561 34.8129C34.5622 34.8119 36.2942 34.0932 37.5702 32.8148C38.8465 31.5367 39.5624 29.8038 39.5604 27.9974C39.5614 26.1923 38.8449 24.4606 37.5686 23.1838C36.2926 21.9067 34.5611 21.1895 32.7561 21.1895L32.7558 21.197ZM36.6936 25.1014L32.5685 31.9718C32.424 32.2116 32.1765 32.3705 31.8985 32.4023H31.7917H31.792C31.5489 32.4028 31.3158 32.306 31.1444 32.1338L28.6567 29.6095L28.6565 29.6092C28.4573 29.4477 28.3359 29.2093 28.3225 28.9531C28.3092 28.6969 28.4049 28.4471 28.5864 28.2659C28.7676 28.0844 29.0177 27.9884 29.2738 28.0018C29.53 28.0154 29.7685 28.1368 29.93 28.336L31.5969 30.025L35.1409 24.1369L35.1407 24.1372C35.3989 23.7082 35.9556 23.5699 36.3846 23.8281C36.8136 24.0861 36.9519 24.6431 36.6937 25.0718L36.6936 25.1014Z" fill="white"/>
</svg>
