<svg width="59" height="59" viewBox="0 0 59 59" fill="none" xmlns="http://www.w3.org/2000/svg">
<path d="M35.0486 27.242L32.7976 27.0286C32.6462 26.1522 32.3838 25.2899 32.0087 24.4615L33.7514 23.0221C34.2078 22.6441 34.272 21.9692 33.895 21.5132L31.6875 18.8437C31.3108 18.3867 30.6358 18.3232 30.1795 18.6992L28.4358 20.1412C27.693 19.6164 26.8943 19.1973 26.063 18.8832L26.2767 16.6318C26.3323 16.0421 25.8997 15.5193 25.312 15.4637L21.8625 15.1368C21.2729 15.0805 20.7513 15.5131 20.6938 16.1021L20.4804 18.3545C19.6043 18.5049 18.7417 18.768 17.9143 19.1436L16.4729 17.3997C16.0959 16.9437 15.4203 16.8795 14.9649 17.2568L12.2947 19.4641C11.8394 19.8407 11.7742 20.517 12.1519 20.9726L13.5923 22.7166C13.0685 23.459 12.6484 24.2567 12.3349 25.0894L10.0829 24.8747C9.49388 24.8191 8.97041 25.2514 8.91478 25.8414L8.58784 29.2892C8.5322 29.8782 8.96318 30.4007 9.5535 30.4564L11.8055 30.6707C11.9567 31.5469 12.2201 32.4094 12.5937 33.2378L10.8498 34.6772C10.3935 35.0552 10.3306 35.7311 10.7072 36.1871L12.9145 38.8563C13.2912 39.3133 13.9664 39.3768 14.423 38.9998L16.1657 37.5587C16.9085 38.0825 17.7069 38.5026 18.5396 38.8168L18.3265 41.0681C18.2686 41.6578 18.7019 42.1797 19.2912 42.2359L22.7383 42.5628C23.3283 42.6191 23.8518 42.1875 23.9074 41.5975L24.1208 39.3462C24.9979 39.1957 25.8595 38.9326 26.6885 38.558L28.1287 40.301C28.5066 40.758 29.1812 40.8212 29.6382 40.4439L32.3074 38.2363C32.7637 37.86 32.8269 37.1847 32.4503 36.7284L31.0108 34.9854C31.5337 34.2419 31.9538 33.4432 32.2663 32.6115L34.5192 32.8259C35.1089 32.8822 35.6304 32.4496 35.6864 31.8605L36.015 28.4117C36.0703 27.8201 35.6383 27.2976 35.0486 27.242ZM25.8977 33.1996C23.4949 35.1862 19.9365 34.8487 17.9492 32.446C15.9629 30.0432 16.3004 26.4841 18.7035 24.4984C21.1073 22.5098 24.6657 22.8483 26.652 25.2521C28.6393 27.6545 28.3018 31.2133 25.8977 33.1996Z" fill="white"/>
<path d="M49.9882 21.7213C50.3119 21.6179 50.4903 21.2715 50.387 20.9472L49.7798 19.0518C49.6765 18.7282 49.3294 18.5491 49.0061 18.6524L47.7675 19.0498C47.4834 18.6103 47.1479 18.2172 46.7706 17.8728L47.3662 16.7149C47.5226 16.4136 47.4034 16.0412 47.1015 15.8865L45.3315 14.9752C45.0299 14.8195 44.6579 14.9373 44.5031 15.2396L43.9066 16.3978C43.4077 16.2908 42.8918 16.2464 42.3706 16.2691L41.9752 15.0311C41.8715 14.7058 41.5245 14.528 41.2005 14.6317L39.3044 15.2372C38.9811 15.3409 38.8026 15.6886 38.905 16.0109L39.3024 17.2508C38.8635 17.535 38.4698 17.8705 38.1254 18.2471L36.969 17.6509C36.6668 17.4941 36.2961 17.614 36.1404 17.9162L35.2291 19.6849C35.0723 19.9878 35.1919 20.3588 35.4944 20.5142L36.6504 21.1105C36.5437 21.6093 36.4989 22.1259 36.522 22.6468L35.2831 23.0428C34.9598 23.1472 34.7803 23.4932 34.8847 23.8175L35.4908 25.7126C35.5942 26.0359 35.9406 26.2154 36.2649 26.112L37.5038 25.7156C37.7876 26.1531 38.1224 26.5472 38.5 26.8923L37.9045 28.0476C37.7487 28.3505 37.8672 28.7212 38.1692 28.8779L39.9388 29.7892C40.2411 29.945 40.6125 29.8255 40.7675 29.5239L41.3631 28.3676C41.8626 28.4742 42.3785 28.518 42.8994 28.4956L43.2955 29.7342C43.3998 30.0575 43.7462 30.237 44.0692 30.1336L45.9646 29.5271C46.2892 29.4237 46.4667 29.0774 46.3643 28.7524L45.9672 27.5148C46.4051 27.2306 46.7992 26.8951 47.1443 26.5175L48.3013 27.1147C48.6025 27.2701 48.9743 27.1506 49.13 26.8484L50.041 25.0794C50.1964 24.7771 50.0789 24.4064 49.7763 24.25L48.6193 23.6548C48.7257 23.155 48.7705 22.6401 48.7481 22.1188L49.9882 21.7213ZM43.6243 25.4713C41.9189 26.0169 40.0923 25.0759 39.5473 23.3714C39.0008 21.6636 39.9424 19.8387 41.6483 19.2934C43.355 18.7469 45.1817 19.6875 45.7259 21.394C46.2715 23.0988 45.3308 24.9254 43.6243 25.4713Z" fill="white"/>
<path d="M25.4678 14.0235C25.555 14.2977 25.8481 14.4482 26.1217 14.3609L27.1687 14.0254C27.4084 14.3958 27.6921 14.7284 28.0109 15.0201L27.5081 15.9966C27.3761 16.2528 27.4762 16.5669 27.7323 16.6979L29.2261 17.4683C29.4816 17.6003 29.7957 17.5003 29.9274 17.2441L30.4305 16.2676C30.8536 16.3571 31.2885 16.394 31.73 16.3756L32.0642 17.4219C32.1521 17.6955 32.4454 17.8473 32.7187 17.759L34.3208 17.2464C34.5941 17.1585 34.7452 16.8655 34.6573 16.5925L34.3231 15.5455C34.6922 15.3052 35.0251 15.0217 35.3161 14.7033L36.294 15.2071C36.5488 15.3391 36.8632 15.2383 36.9943 14.9825L37.7647 13.4878C37.8967 13.232 37.7966 12.9185 37.5408 12.7868L36.5636 12.2838C36.6525 11.8613 36.691 11.4251 36.6716 10.9842L37.7179 10.6497C37.9915 10.5628 38.1433 10.2695 38.0554 9.99685L37.5428 8.39474C37.4565 8.12114 37.1625 7.97002 36.8889 8.05694L35.8416 8.39343C35.6019 8.02238 35.3194 7.68984 35 7.3981L35.5041 6.42055C35.6348 6.16507 35.5344 5.85228 35.2786 5.72026L33.7848 4.94984C33.5293 4.81847 33.2152 4.91856 33.0828 5.17306L32.5791 6.15094C32.157 6.06139 31.7224 6.02385 31.2812 6.04295L30.9467 4.99562C30.8598 4.72202 30.5665 4.5709 30.2922 4.65848L28.6911 5.1711C28.4169 5.25934 28.2657 5.55203 28.354 5.82563L28.6891 6.87094C28.3187 7.11261 27.9855 7.39576 27.6945 7.7138L26.7166 7.21072C26.4611 7.07803 26.147 7.17911 26.0156 7.43493L25.2459 8.92932C25.1145 9.18514 25.2153 9.49956 25.4704 9.6306L26.4476 10.1343C26.3574 10.5558 26.3189 10.992 26.3397 11.4319L25.2916 11.7674C25.0187 11.8553 24.8669 12.147 24.9545 12.4206L25.4678 14.0235ZM30.6691 8.59756C32.1122 8.13696 33.654 8.93141 34.1163 10.3731C34.5779 11.8146 33.7831 13.358 32.3407 13.8193C30.8992 14.2806 29.3558 13.4861 28.8955 12.0438C28.4333 10.6023 29.2277 9.05886 30.6691 8.59756Z" fill="white"/>
</svg>
