<svg width="54" height="54" viewBox="0 0 54 54" fill="none" xmlns="http://www.w3.org/2000/svg">
<path fill-rule="evenodd" clip-rule="evenodd" d="M26.2586 10.4127C28.2505 8.6683 31.213 7.79774 33.7499 8.79119C34.4195 9.05335 35.0381 9.45956 35.5148 10.0011C35.6526 10.1584 35.8668 10.2205 36.0654 10.1732L41.1276 8.89336L46.8304 18.7268L40.1682 23.525L30.459 13.7193C30.3375 13.5958 30.1621 13.5391 29.9901 13.562C28.1691 13.804 26.3417 16.2509 25.4615 17.7251C25.0466 18.4221 24.5292 19.251 23.6701 19.4207C23.272 19.4987 22.9348 19.2935 22.8118 18.9165C22.3393 17.7012 23.0788 15.5439 23.5245 14.4115C24.1242 12.89 25.0225 11.4946 26.258 10.4127L26.2586 10.4127ZM22.5528 26.4862C22.4241 24.1677 20.5338 23.01 18.4096 23.8872C17.9179 21.5166 15.3125 20.4848 13.6048 22.1994L13.0784 22.7291L7.16968 16.8217L13.2447 7.83533L13.4351 7.99082C14.9786 9.25611 17.0838 10.1921 19.0133 9.17419C21.6032 7.80668 23.3589 7.44148 25.7771 9.36554C24.2463 10.6779 23.2314 12.1321 22.4922 14.0104C21.936 15.4233 21.1925 17.8157 21.7814 19.3221C22.134 20.2222 22.928 20.6998 23.8865 20.5048C25.1 20.2598 25.8591 19.2272 26.4572 18.2276C27.2814 16.8499 28.4157 15.4188 29.8974 14.7242C33.7844 18.6522 37.6633 22.5874 41.5691 26.4962C42.5141 27.4421 40.7904 30.0107 39.2219 28.4464C37.181 26.4106 35.1445 24.3705 33.1071 22.3311C32.5906 21.8143 31.8056 22.5999 32.3218 23.1164C34.1913 24.9865 36.0602 26.8554 37.939 28.7346C38.7927 29.6943 36.8584 32.1216 35.2951 30.5583L30.4978 25.7604C29.9813 25.243 29.195 26.0283 29.7124 26.5451L33.6561 30.5029C34.6577 32.3932 32.3968 33.7489 31.1426 32.4954L30.3865 31.7393C29.9583 31.3096 29.5726 31.7709 29.2885 32.0705C28.8491 30.3547 27.9282 29.51 26.069 29.5811C26.1058 27.4416 24.703 26.1283 22.5536 26.4863L22.5528 26.4862ZM27.702 35.1247L28.4521 34.3746C29.1132 33.7144 29.2118 33.0982 29.3082 32.233C29.7102 32.6347 29.9736 32.8993 30.2902 33.3914C30.9182 34.365 29.2916 35.9727 27.7017 35.1247L27.702 35.1247ZM25.435 31.0214C27.1373 29.7482 29.1286 32.1285 27.6668 33.59L26.5076 34.7487C25.0729 36.1834 22.7363 34.2777 23.9166 32.5507L25.435 31.0214ZM24.61 30.259C23.8859 30.9412 23.2197 31.6765 22.5181 32.3786C21.0614 33.8353 18.7408 31.8736 19.9375 30.1662C20.6486 29.4565 21.342 28.7288 22.0529 28.0179C23.5213 26.5501 25.8509 28.5492 24.6103 30.259H24.61ZM21.1046 27.3971C20.3937 28.108 19.6994 28.8352 18.9885 29.5457C17.3893 31.1437 15.1088 28.5986 16.3928 27.3791C17.1142 26.6586 17.8031 25.9061 18.5236 25.1845C19.9766 23.7314 22.2927 25.6814 21.1042 27.3969L21.1046 27.3971ZM15.4731 26.7125C13.8163 28.0426 11.6931 25.6886 13.1959 24.1827C13.5933 23.7832 13.9917 23.3842 14.3898 22.9858C15.7943 21.5816 18.0686 23.3486 17.0319 25.1072L15.7901 26.3481C15.6895 26.4476 15.5967 26.5558 15.4731 26.7125Z" fill="white"/>
</svg>
