<svg width="180" height="200" viewBox="0 0 180 200" fill="none" xmlns="http://www.w3.org/2000/svg">
<path d="M99.8956 44.4683L97.4549 43.1082L95.8278 42.2112L93.2202 40.7718L91.5931 39.8748L89.1316 38.5189V134.728H91.5931V39.879L93.2202 40.776V134.711H96.5162V130.268L96.6414 79.6183L101.001 76.8855V75.0498L99.6453 75.8425L99.8956 44.4683L102.357 45.8451V74.1904V45.8201L99.8956 44.4683ZM97.4758 77.0316L95.8487 78.012V42.2154L97.4758 43.1124V77.0316Z" fill="#111111"/>
<path d="M84.1252 35.7278V133.207V134.711H86.7328V132.79V37.188L89.1526 38.521L86.7328 37.188L84.1252 35.7278Z" fill="#111111"/>
<path d="M102.399 74.2342L101.043 75.0269V76.8626L102.399 76.0282V74.1737V74.2342Z" fill="#111111"/>
<path d="M47.2646 68.2701V132.124V134.711H60.219V60.8L60.2607 60.8229V60.51L47.2646 68.2701Z" fill="white"/>
<path d="M60.2607 60.823L60.219 60.8V134.711H60.2607V60.823Z" fill="white"/>
<path d="M102.399 76.0281L101.043 76.8626L96.6624 79.5974L96.5581 130.268V134.711H101.043H106.404V73.504L102.399 76.0281Z" fill="white"/>
<path d="M89.1525 38.521L86.7327 37.188V132.79V134.711H89.1525V132.289V38.521Z" fill="white"/>
<path d="M91.5933 39.8769V131.728V134.711H93.2621V131.29V40.7739L91.5933 39.8769Z" fill="white"/>
<path d="M102.399 74.1737V45.8222L99.8956 44.4662L99.687 75.8196L101.043 75.0269V74.9851L102.399 74.1737Z" fill="white"/>
<path d="M97.4759 43.1103L95.8696 42.2154V78.0099L97.4759 77.0315V43.1103Z" fill="white"/>
<path d="M102.399 74.1737L101.043 74.9851V75.0269L102.399 74.2342V74.1737Z" fill="white"/>
<path d="M73.4029 67.8112V134.711H84.1252V133.207V35.7278L67.249 46.4709V64.388L67.2907 64.4109L73.4029 67.8112Z" fill="white"/>
<path d="M62.5554 61.7805L73.3403 67.83V134.711H73.4029V67.8112L67.2907 64.411L67.249 64.388V64.411L62.5554 61.7805Z" fill="#111111"/>
<path d="M54.8162 142.855H51.6245V156.272H47.2646V139.517H54.8391V142.855H54.8162Z" fill="white"/>
<path d="M65.9411 149.324C65.9613 150.515 65.9196 151.706 65.8159 152.893C65.7358 153.587 65.477 154.248 65.0649 154.812C64.6341 155.404 64.0488 155.866 63.3731 156.147C62.5865 156.471 61.7411 156.627 60.8907 156.606C60.0633 156.619 59.2412 156.471 58.4709 156.168C57.7838 155.897 57.1842 155.442 56.7374 154.854C56.314 154.294 56.0476 153.632 55.9656 152.935C55.8613 151.727 55.8196 150.515 55.8404 149.303V146.445C55.8201 145.254 55.8619 144.062 55.9656 142.876C56.0457 142.182 56.3045 141.52 56.7166 140.956C57.1474 140.365 57.7326 139.903 58.4083 139.621C59.1948 139.297 60.0402 139.14 60.8907 139.16C61.7184 139.148 62.5405 139.297 63.3106 139.601C63.9977 139.872 64.5973 140.326 65.0441 140.915C65.4675 141.474 65.7339 142.137 65.8159 142.834C65.9201 144.042 65.9619 145.254 65.9411 146.466V149.324ZM61.5791 143.814C61.5791 143.043 61.5374 142.542 61.454 142.312C61.4106 142.206 61.3347 142.117 61.2372 142.057C61.1397 141.997 61.0257 141.97 60.9116 141.979C60.8083 141.973 60.7054 141.995 60.6136 142.043C60.5219 142.09 60.4446 142.162 60.3901 142.25C60.2649 142.417 60.2023 142.938 60.2023 143.814V151.641C60.2023 152.622 60.2441 153.206 60.3275 153.435C60.3844 153.538 60.4693 153.624 60.5724 153.681C60.6755 153.738 60.7927 153.765 60.9104 153.758C61.0281 153.752 61.1416 153.712 61.2378 153.644C61.334 153.576 61.4089 153.482 61.454 153.373C61.5374 153.101 61.5791 152.496 61.5791 151.495V143.814Z" fill="white"/>
<path d="M67.5681 139.517H71.9488C73.1379 139.517 74.0558 139.601 74.6816 139.788C75.2291 139.918 75.7288 140.2 76.123 140.602C76.4472 140.961 76.6703 141.4 76.7697 141.874C76.8987 142.639 76.9546 143.414 76.9366 144.19V145.65C76.9366 146.714 76.8323 147.507 76.6028 147.986C76.347 148.495 75.9168 148.895 75.3908 149.113C74.8067 149.384 74.0349 149.509 73.0753 149.509H71.9071V156.249H67.541V139.517H67.5681ZM71.9217 142.375V146.633H72.2346C72.3865 146.647 72.5397 146.628 72.6837 146.578C72.8277 146.527 72.9591 146.446 73.069 146.341C73.2359 146.153 73.2985 145.736 73.2985 145.11V143.731C73.2985 143.168 73.2151 142.792 73.0273 142.604C72.8688 142.458 72.4933 142.375 71.9217 142.375Z" fill="white"/>
<path d="M86.9746 139.517V142.876H84.3879V156.272H80.0573V142.876H77.4915V139.517H86.9746Z" fill="white"/>
<path d="M87.9844 139.517H95.2459V142.876H92.338V146.048H95.0498V149.24H92.338V152.935H95.5317V156.293H87.9844V139.517Z" fill="white"/>
<path d="M106.404 139.542L104.089 146.933L106.404 156.281H102.378C101.824 154.269 101.384 152.228 101.062 150.166C100.957 151.23 100.791 152.357 100.603 153.548L100.186 156.281H95.9509L97.5363 146.933L95.9509 139.523H100.165C100.248 139.982 100.394 140.754 100.624 141.841C100.811 142.654 100.957 143.426 101.062 144.115L102.003 139.544H106.404V139.542Z" fill="white"/>
</svg>
